<svg width="154" height="39" viewBox="0 0 154 39" fill="none" xmlns="http://www.w3.org/2000/svg">
<path d="M17.518 38.9991C7.94127 39.0644 -0.0631516 30.8762 0.000375558 20.8937C0.0639027 11.0255 7.94127 2.93515 17.645 3.00039C27.6029 3.06564 35.1785 11.4985 35.0991 21.1547C35.0197 30.974 27.0947 39.097 17.518 38.9991ZM26.3324 35.1008C26.5865 35.1008 26.6977 34.954 26.8247 34.8724C28.0317 34.0242 29.1117 33.0456 30.0487 31.8875C33.3204 27.826 34.5592 23.161 33.6539 17.9903C32.1769 9.50855 24.363 3.1635 15.3739 4.38684C6.68661 5.54493 0.0956664 13.7821 1.31856 23.1936C2.03324 28.7068 4.84432 32.8824 9.52945 35.6553C11.467 36.7971 13.5158 37.629 15.8504 37.4006C22.2031 36.8134 26.3165 29.9954 23.9501 23.9276C23.156 21.8887 22.0284 20.0129 20.869 18.1861C19.0109 15.2501 16.978 12.4282 14.8657 9.67166C14.6116 9.34543 14.5799 9.10077 14.8498 8.75823C15.8345 7.45334 16.8033 6.14845 17.7562 4.82724C18.0262 4.45209 18.185 4.53364 18.4391 4.85986C20.9643 8.18734 23.3784 11.5801 25.6018 15.1033C26.9518 17.2563 28.2541 19.442 29.1276 21.8561C30.4775 25.5261 30.1917 29.0656 28.3017 32.4747C27.7776 33.4207 27.0788 34.2526 26.3324 35.1008Z" fill="#8E9B9B"/>
<path d="M4.62272 27.0437C4.55919 25.6083 5.05152 24.2708 5.67091 22.9659C6.94146 20.2746 8.5614 17.7953 10.1972 15.3323C10.6737 14.6146 11.1819 13.8969 11.6583 13.1793C11.833 12.9183 11.9919 12.853 12.2142 13.1303C14.7871 16.5067 17.4711 19.8179 19.2498 23.7489C19.9963 25.3963 20.1869 27.1416 19.7739 28.9358C18.9163 32.6548 15.6288 35.1504 11.7695 34.9873C8.33905 34.8405 5.27387 31.986 4.70212 28.3976C4.6386 27.9572 4.62272 27.5331 4.62272 27.0437ZM12.3254 21.7263C9.18079 21.71 6.70323 24.2219 6.68735 27.4189C6.68735 30.6485 9.11726 33.1767 12.2301 33.193C15.3747 33.2094 17.884 30.6974 17.9158 27.4841C17.9634 24.3361 15.4223 21.7263 12.3254 21.7263Z" fill="#8E9B9B"/>
<path d="M9.625 35.0202C10.3238 35.216 10.9273 35.3465 11.5626 35.428C16.6765 35.9826 21.1075 31.2197 20.3452 26.0165C20.0752 24.1407 19.2335 22.5259 18.2965 20.96C16.613 18.1382 14.6278 15.5121 12.5949 12.9349C12.2931 12.5598 12.2455 12.2825 12.5473 11.891C12.9761 11.3528 13.3413 10.7492 13.7543 10.1947C14.2307 9.54222 14.2466 9.54222 14.7072 10.162C16.5653 12.6413 18.3918 15.1696 20.0752 17.7793C21.2664 19.6225 22.3781 21.4983 23.2992 23.5046C25.9197 29.1972 22.394 35.9663 16.3271 36.896C14.1354 37.2386 12.0867 36.8145 10.2126 35.5748C10.022 35.4443 9.78382 35.3465 9.625 35.0202Z" fill="#8E9B9B"/>
<path d="M10.6427 24.499C11.2145 24.499 11.675 24.9557 11.7227 25.5592C11.7386 25.7876 11.7386 25.9996 11.9133 26.1954C12.4215 26.7989 12.4215 26.7826 13.0091 26.2606C13.4697 25.8528 13.7397 25.2983 14.1208 24.8416C14.4067 24.4827 14.6132 24.6295 14.8673 24.8905C15.1373 25.1515 15.2167 25.3798 14.8832 25.6082C14.3114 25.9996 13.7397 26.4074 13.2632 26.9457C13.025 27.223 13.0091 27.3861 13.2791 27.6308C13.7079 28.0059 14.0414 28.5116 14.6449 28.691C15.0579 28.8052 15.2326 29.2129 15.1373 29.6697C15.0579 30.1101 14.772 30.3873 14.3432 30.4363C13.9144 30.4689 13.5332 30.2895 13.422 29.8491C13.2791 29.2945 12.8503 29.0009 12.5168 28.6094C12.358 28.43 12.1991 28.4137 12.088 28.6747C11.7703 29.3597 11.1509 29.7838 10.6427 30.2895C10.341 30.5831 10.0392 30.3873 9.80099 30.1264C9.54688 29.8654 9.27689 29.5555 9.57864 29.2293C10.071 28.691 10.468 28.0222 11.1986 27.7613C11.4209 27.6797 11.4368 27.5166 11.278 27.3535C11.0556 27.1088 10.881 26.8805 10.468 26.8968C9.81687 26.9294 9.38806 26.3748 9.45159 25.7224C9.46747 25.6082 9.46747 25.4614 9.57864 25.3961C9.7057 25.3309 9.80099 25.4451 9.8804 25.5266C10.0075 25.6408 10.1186 25.7713 10.2457 25.8855C10.3886 26.016 10.5474 26.0486 10.7063 25.8855C10.8492 25.7387 10.8651 25.5756 10.738 25.4124C10.6427 25.282 10.5316 25.1841 10.4363 25.0699C10.341 24.9557 10.1504 24.8742 10.2457 24.6784C10.3251 24.499 10.4998 24.5153 10.6427 24.499Z" fill="#8E9B9B"/>
<path d="M59.4688 4.79688V14.2578H53.9609V4.79688H52.0859V16H61.0859V18.3047H62.9531V14.2578H61.3438V4.79688H59.4688ZM64.4531 4.79688V16H72.1016V14.2656H66.3281V10.7109H70.8047V8.99219H66.3281V6.53125H72.1016V4.79688H64.4531ZM81.375 4.79688V8.99219H75.7734V4.79688H73.9062V16H75.7734V10.7422H81.375V16H83.2578V4.79688H81.375ZM84.8281 4.78906V6.53906H88.6172V16H90.4922V6.53906H94.2969V4.78906H84.8281ZM97.7422 9.50781V6.53906H100.875C101.383 6.53906 101.625 6.58594 101.852 6.67969C102.398 6.90625 102.789 7.38281 102.789 8.03125C102.789 8.6875 102.383 9.15625 101.852 9.375C101.625 9.46875 101.375 9.50781 100.883 9.50781H97.7422ZM97.7422 16V11.2422H101.109C101.977 11.2422 102.539 11.0859 103.023 10.8125C104 10.2812 104.633 9.25781 104.633 8.02344C104.633 6.75781 104 5.75 103.031 5.22656C102.547 4.94531 101.977 4.79688 101.109 4.79688H95.875V16H97.7422ZM60.8359 31.6719C60.8359 30.3984 60.1797 29.3281 59.1719 28.7891C58.6875 28.5078 58.1016 28.3516 57.2266 28.3516H53.9609V25.5391H59.8203V23.7969H52.0938V35H57.2266C58.1016 35 58.6875 34.8438 59.1797 34.5703C60.1797 34.0234 60.8359 32.9844 60.8359 31.6719ZM58.9844 31.6719C58.9844 32.3672 58.5703 32.8828 58 33.1172C57.7734 33.2188 57.5156 33.2656 57 33.2656H53.9609V30.0781H57.0078C57.5078 30.0781 57.7656 30.125 58 30.2188C58.5625 30.4609 58.9844 30.9688 58.9844 31.6719ZM70.3203 35H72.2812L67.7812 23.7969H65.9297L61.4219 35H63.3828L64.1875 32.9219H69.5078L70.3203 35ZM66.8516 26.0391L68.8516 31.2109H64.8438L66.8516 26.0391ZM83.5391 27.6406C82.8047 25.2188 80.6484 23.7891 78.1328 23.7891C74.8984 23.7891 72.4375 26.2422 72.4375 29.3984C72.4375 32.5938 74.9766 35 78.1328 35C80.7188 35 82.8906 33.4141 83.5625 31.0703L81.7812 30.5156C81.2656 32.2188 79.9141 33.2656 78.1328 33.2656C75.8984 33.2656 74.3516 31.5312 74.3516 29.3984C74.3516 27.1953 75.9219 25.5234 78.1328 25.5234C79.9141 25.5234 81.2578 26.5625 81.7656 28.2266L83.5391 27.6406ZM95.6641 27.6406C94.9297 25.2188 92.7734 23.7891 90.2578 23.7891C87.0234 23.7891 84.5625 26.2422 84.5625 29.3984C84.5625 32.5938 87.1016 35 90.2578 35C92.8438 35 95.0156 33.4141 95.6875 31.0703L93.9062 30.5156C93.3906 32.2188 92.0391 33.2656 90.2578 33.2656C88.0234 33.2656 86.4766 31.5312 86.4766 29.3984C86.4766 27.1953 88.0469 25.5234 90.2578 25.5234C92.0391 25.5234 93.3828 26.5625 93.8906 28.2266L95.6641 27.6406ZM97.2344 23.7969V35H104.883V33.2656H99.1094V29.7109H103.586V27.9922H99.1094V25.5312H104.883V23.7969H97.2344ZM111.633 24.4844C112.414 23.6094 113.195 22.7266 113.984 21.8516C113.57 21.4688 113.141 21.0859 112.727 20.6953L110.375 23.3359L111.633 24.4844ZM114.477 35H116.352V23.7969H115.336C113.07 26.3984 110.812 29.0078 108.555 31.6094V23.7969H106.68V35H107.695L114.477 27.1797V35ZM126.016 23.7969V27.9922H120.414V23.7969H118.547V35H120.414V29.7422H126.016V35H127.898V23.7969H126.016ZM140.914 29.3984C140.914 26.2422 138.484 23.7969 135.219 23.7969C131.953 23.7969 129.531 26.2422 129.531 29.3984C129.531 32.5547 131.953 35 135.219 35C138.484 35 140.914 32.5547 140.914 29.3984ZM139 29.3984C139 31.5781 137.469 33.25 135.219 33.25C132.977 33.25 131.438 31.5781 131.438 29.3984C131.438 27.2188 132.977 25.5312 135.219 25.5312C137.469 25.5312 139 27.2188 139 29.3984ZM144.43 28.3828V25.4844H146.789C147.281 25.4844 147.523 25.5234 147.742 25.6172C148.273 25.8438 148.672 26.2969 148.672 26.9375C148.672 27.5781 148.273 28.0312 147.742 28.2578C147.516 28.3438 147.273 28.3828 146.789 28.3828H144.43ZM144.43 33.2891V29.9922H147.445C148 29.9922 148.266 30.0391 148.508 30.1406C149.117 30.3828 149.555 30.9219 149.555 31.6328C149.555 32.375 149.102 32.8984 148.508 33.1406C148.258 33.2344 147.992 33.2891 147.461 33.2891H144.43ZM142.562 35H147.789C148.648 35 149.188 34.8594 149.664 34.6172C150.711 34.0859 151.398 33.0234 151.398 31.7031C151.398 30.4297 150.656 29.4297 149.586 28.9297C150.141 28.4141 150.469 27.7266 150.469 26.9609C150.469 25.6641 149.789 24.6562 148.773 24.1562C148.32 23.9219 147.797 23.7969 146.984 23.7969H142.562V35Z" fill="#5C6666"/>
</svg>
